<?xml version="1.0" encoding="UTF-8"?>
<svg version="1.1" xmlns="http://www.w3.org/2000/svg" width="1024" height="1024">
<path d="M0 0 C0.33 0.66 0.66 1.32 1 2 C1.515625 1.814375 2.03125 1.62875 2.5625 1.4375 C5.85908739 0.84580483 8.72245735 1.432733 12 2 C13.86477197 6.97272524 15.17289235 11.70006036 16.02954102 16.9519043 C17.63331783 26.75024391 20.33664249 33.40594819 28 40 C33.83427309 44.04616581 38.12580346 46.02685553 45.3125 46.375 C50.18549386 46.72229578 53.90338327 47.12129635 58 50 C60.4558011 53.68370166 60.28189385 56.45092298 60.26006222 60.71095848 C60.26386789 61.50814604 60.26767356 62.30533359 60.27159455 63.12667835 C60.28197026 65.82054994 60.27799322 68.51421315 60.27415466 71.20809937 C60.27860382 73.14990815 60.2839168 75.09171511 60.29002339 77.03351939 C60.30425236 82.38724343 60.30586576 87.74090955 60.30542648 93.09464979 C60.30707037 98.86163004 60.32012876 104.62858612 60.33161926 110.39555359 C60.35450086 123.01307751 60.36239312 135.63058465 60.36744571 148.24812651 C60.37069877 156.12130834 60.37721882 163.99448527 60.3844471 171.86766434 C60.40401639 193.65166016 60.42050021 215.43565087 60.42332363 237.21965599 C60.42341769 237.91665903 60.42351175 238.61366207 60.42360866 239.33178642 C60.42398715 242.15654042 60.42435115 244.98129441 60.42471164 247.80604841 C60.42498336 249.93222238 60.42526004 252.05839634 60.42553711 254.18457031 C60.42562513 254.88713877 60.42571315 255.58970722 60.42580384 256.31356563 C60.42870998 278.39397894 60.45081099 300.47430476 60.48706055 322.5546875 C60.52776403 347.34881547 60.55146242 372.14288341 60.55178314 396.93704665 C60.55236875 410.07000021 60.56092699 423.20284117 60.58978081 436.33576584 C60.6142314 447.51622342 60.62162039 458.69652732 60.60653328 469.87700437 C60.5993387 475.58495818 60.60033128 481.29260813 60.62294388 487.00052834 C60.64342993 492.22151207 60.64103107 497.44195632 60.62006903 502.66293354 C60.61655419 504.55592563 60.6215677 506.44895584 60.63577347 508.34189789 C60.65379431 510.90771401 60.6412481 513.47160362 60.62082577 516.03735924 C60.63338914 516.77901333 60.64595251 517.52066742 60.6588966 518.28479588 C60.59243477 522.16317124 60.10651937 523.86479347 57.6770187 526.94859278 C54.28368103 529.54891731 51.98626194 529.75306111 47.75 530.0625 C37.63615104 531.06910322 29.75207631 534.13682252 23 542 C18.03342828 549.46109416 16.10037654 556.9387095 14.8359375 565.65234375 C13.88246335 569.47069585 12.84032844 571.29053993 10 574 C4.2481258 576.6666608 -1.74831027 576.3492045 -7.9609375 576.4140625 C-9.10664215 576.43342865 -10.2523468 576.4527948 -11.43276978 576.4727478 C-15.08010491 576.53236785 -18.7274719 576.57885918 -22.375 576.625 C-24.85287809 576.6631959 -27.33074314 576.70224857 -29.80859375 576.7421875 C-35.87227972 576.83805503 -41.93604474 576.92315385 -48 577 C-47.23856689 578.0204541 -46.47713379 579.0409082 -45.69262695 580.09228516 C-44.68681486 581.44939839 -43.68121058 582.80666566 -42.67578125 584.1640625 C-42.17469849 584.83445557 -41.67361572 585.50484863 -41.15734863 586.19555664 C-38.49168399 589.80340535 -36.15998109 593.32774216 -34.1875 597.375 C-32.22361495 600.45367863 -31.33858524 600.92177237 -27.703125 601.76171875 C-24.09997825 602.04952197 -20.61137165 602.10559566 -17 602 C-15.33333481 601.99778074 -13.66666369 601.99684941 -12 602 C-11.67 602.66 -11.34 603.32 -11 604 C-9.11584465 604.69030815 -9.11584465 604.69030815 -6.875 605.25 C-0.40159888 607.31159271 3.60070711 610.51738357 6.9375 616.4375 C10.4062164 628.06790206 5.16895259 640.49511044 -0.25 650.75 C-11.76969418 671.8714248 -11.76969418 671.8714248 -21.6015625 675.23046875 C-22.93874157 675.56571781 -24.2802243 675.88415513 -25.625 676.1875 C-26.33648193 676.35475586 -27.04796387 676.52201172 -27.78100586 676.69433594 C-33.51100298 677.991987 -39.1202742 678.81321313 -45 679 C-46.16015625 679.03996094 -47.3203125 679.07992187 -48.515625 679.12109375 C-61.85650033 679.35442182 -78.24725977 679.39619194 -88.5546875 669.6640625 C-91.96511154 665.73746618 -92.95966379 662.25042266 -93.125 657.125 C-91.83529988 650.04536957 -86.40990432 644.72883456 -80.75 640.6875 C-71.03021386 634.78035724 -61.12190473 633.14070818 -50 632 C-52.2558765 626.17155371 -55.27089077 621.26504964 -58.76953125 616.1015625 C-59.32815353 615.26716644 -59.88677582 614.43277039 -60.46232605 613.5730896 C-62.24029773 610.92004125 -64.02621502 608.27245627 -65.8125 605.625 C-67.00118658 603.85452611 -68.1893427 602.08369594 -69.37695312 600.3125 C-72.07366261 596.29236772 -74.77110246 592.27277454 -77.48829651 588.26644897 C-78.54669115 586.67963154 -79.58161059 585.07702027 -80.59849548 583.46328735 C-81.11803299 582.6468576 -81.6375705 581.83042786 -82.17285156 580.98925781 C-82.63459778 580.24814758 -83.09634399 579.50703735 -83.57208252 578.74346924 C-85.0136877 576.64817781 -85.0136877 576.64817781 -88.40234375 576.0078125 C-90.15224609 576.06582031 -90.15224609 576.06582031 -91.9375 576.125 C-97.5480895 576.06581657 -101.21013777 575.98035872 -106 573 C-108.79118685 569.15343902 -109.75909428 565.50229202 -110.6875 560.875 C-110.93886719 559.65554688 -111.19023438 558.43609375 -111.44921875 557.1796875 C-112 554 -112 554 -112 551 C-112.99 551.33 -113.98 551.66 -115 552 C-115 551.01 -115 550.02 -115 549 C-116.19679417 544.47809211 -117.91475486 541.41506249 -120.875 537.8125 C-121.55304688 536.97332031 -122.23109375 536.13414062 -122.9296875 535.26953125 C-124.84149105 533.1737617 -126.61723035 531.53035624 -129 530 C-129.66 530 -130.32 530 -131 530 C-131.24105469 529.40058594 -131.48210937 528.80117188 -131.73046875 528.18359375 C-136.03721468 520.77599074 -148.30552975 517.45090359 -156 515 C-174.59134409 510.7490125 -192.91016788 514.14626521 -208.91015625 524.01171875 C-221.61449835 532.18682637 -230.53068055 545.65136604 -233.75390625 560.46484375 C-234.09228516 562.18380859 -234.09228516 562.18380859 -234.4375 563.9375 C-235.86364577 570.59815848 -235.86364577 570.59815848 -238.75 573.1875 C-245.07885087 576.71705145 -250.87156867 577.28242435 -257.9375 577.125 C-258.71673828 577.11597656 -259.49597656 577.10695313 -260.29882812 577.09765625 C-262.19935447 577.07433691 -264.09972008 577.03847586 -266 577 C-266.21947296 577.5486824 -266.43894592 578.09736481 -266.66506958 578.66267395 C-267.34060458 580.35151146 -268.01615334 582.04034347 -268.69171143 583.72917175 C-269.49922297 585.74802302 -270.3066335 587.76691468 -271.11395264 589.7858429 C-273.36547029 595.41594413 -275.61881545 601.04530277 -277.87548828 606.67333984 C-282.03237185 617.04530822 -286.17787259 627.42034172 -290.234375 637.83203125 C-291.1599895 640.19451742 -292.08657962 642.55661802 -293.01361084 644.91854858 C-293.58175954 646.37386352 -294.14554217 647.83089154 -294.70465088 649.28970337 C-301.63367077 667.36372575 -301.63367077 667.36372575 -309.3125 672 C-320.66082092 675.07751076 -330.9716874 670.90177416 -341.58984375 666.8671875 C-343.88882702 665.98482142 -343.88882702 665.98482142 -345.8972168 665.56884766 C-362.49387308 661.07909854 -382.77791562 647.07205336 -393.5 633.9375 C-396.97506963 627.13215531 -398.03465967 620.42408559 -396 613 C-392.76504181 606.93445339 -387.40450348 603.98539608 -381 602 C-375.49740821 600.68558267 -370.21785869 601.09043958 -364.625 601.4375 C-363.69816406 601.48970703 -362.77132812 601.54191406 -361.81640625 601.59570312 C-359.54386099 601.72455878 -357.27184901 601.85948311 -355 602 C-355 602.66 -355 603.32 -355 604 C-353.845 604.165 -352.69 604.33 -351.5 604.5 C-343.81237028 606.18395699 -336.87675446 610.29177544 -330 614 C-329.33516602 614.35610352 -328.67033203 614.71220703 -327.98535156 615.07910156 C-323.12264773 617.75470454 -323.12264773 617.75470454 -322 620 C-320.35636866 620.72159424 -318.68949614 621.39351421 -317 622 C-316.88825439 621.14494873 -316.77650879 620.28989746 -316.66137695 619.40893555 C-315.96447156 615.81687576 -314.8450289 612.82337334 -313.41796875 609.45703125 C-313.16251785 608.84792404 -312.90706696 608.23881683 -312.64387512 607.61125183 C-311.8311121 605.675727 -311.00987565 603.74395772 -310.1875 601.8125 C-309.3771632 599.89837411 -308.56879505 597.98345822 -307.76325989 596.06730652 C-307.02595839 594.31513577 -306.28305912 592.56532355 -305.53979492 590.81567383 C-303.52298071 585.9419118 -301.77635275 580.96517989 -300 576 C-300.58580338 576.00666183 -301.17160675 576.01332367 -301.77516174 576.02018738 C-307.89114881 576.08673514 -314.00703243 576.13188114 -320.12329102 576.16479492 C-322.40360698 576.17984918 -324.68389414 576.20029708 -326.96411133 576.22631836 C-330.24828209 576.26284894 -333.53206885 576.27976039 -336.81640625 576.29296875 C-337.83021866 576.30845261 -338.84403107 576.32393646 -339.88856506 576.33988953 C-346.5187419 576.34145371 -351.39454442 575.64752073 -356.8671875 571.62890625 C-358.38142008 569.45154423 -358.70248064 567.54559677 -359.125 564.9375 C-359.69521736 561.34975759 -359.69521736 561.34975759 -361 558 C-361.061875 557.01 -361.12375 556.02 -361.1875 555 C-362.19589607 547.56889666 -367.25906014 540.71541959 -373.12109375 536.24609375 C-381.99079765 530.36369137 -390.62784191 530.23816666 -401 530 C-401 529.01 -401 528.02 -401 527 C-401.48721358 526.43905716 -401.97442716 525.87811433 -402.47640479 525.30017322 C-404.63509182 522.04120124 -404.41336358 518.97592367 -404.37752342 515.19722843 C-404.38188374 514.40226378 -404.38624407 513.60729913 -404.39073652 512.78824463 C-404.40173898 510.10785015 -404.39124764 507.42796511 -404.38095093 504.74757385 C-404.38440552 502.81315103 -404.38916875 500.87873018 -404.39513266 498.94431347 C-404.40769964 493.6156126 -404.40144643 488.28707214 -404.39217401 482.95837057 C-404.38540707 477.21663071 -404.39585305 471.47491912 -404.40411377 465.73318481 C-404.41747878 454.47969107 -404.41456098 443.22625723 -404.40587585 431.9727611 C-404.39911024 422.82910986 -404.39817771 413.68547545 -404.4014473 404.54182243 C-404.401907 403.24216359 -404.40236669 401.94250474 -404.40284032 400.60346229 C-404.40379947 397.96350408 -404.40477211 395.32354587 -404.4057581 392.68358766 C-404.41407593 368.61418088 -404.40543873 344.54480565 -404.38973031 320.47540399 C-404.37549467 298.49554802 -404.37676544 276.51574419 -404.39111328 254.53588867 C-404.40717231 229.85198967 -404.41349447 205.1681207 -404.40427649 180.48421711 C-404.40332081 177.85347585 -404.4023777 175.22273459 -404.4014473 172.59199333 C-404.40098447 171.29750913 -404.40052164 170.00302492 -404.40004479 168.66931393 C-404.39745127 159.5339612 -404.40183373 150.39862693 -404.40888596 141.26327705 C-404.41728821 130.13410177 -404.41504776 119.00498999 -404.39904372 107.87582202 C-404.39114359 102.19426664 -404.38809902 96.51281725 -404.39799118 90.83126259 C-404.40690263 85.63448181 -404.40206398 80.43790568 -404.38605852 75.24114358 C-404.38269561 73.35693568 -404.38443847 71.47271064 -404.39168589 69.58851368 C-404.40075766 67.03496464 -404.39150368 64.48212424 -404.37752342 61.92861271 C-404.38454692 61.19045316 -404.39157042 60.4522936 -404.39880675 59.69176558 C-404.35047134 55.29952652 -403.70317115 52.495633 -401 49 C-399.16015625 48.14453125 -399.16015625 48.14453125 -397.0625 47.8125 C-396.27101563 47.67070312 -395.47953125 47.52890625 -394.6640625 47.3828125 C-392.78590426 47.11293052 -390.90538689 46.85922299 -389.0234375 46.6171875 C-379.02890442 45.22554365 -372.93926379 42.00500556 -366.53125 34.140625 C-361.79533985 27.52001591 -360.29945686 20.62357377 -359.30175781 12.671875 C-358.78373146 9.19345541 -357.98201728 6.97418219 -355.96484375 4.078125 C-349.8649831 -0.19740315 -341.23265986 0.84802828 -334.00146484 0.83886719 C-333.04579117 0.83390228 -332.09011749 0.82893738 -331.10548401 0.82382202 C-327.97396096 0.80932852 -324.84248843 0.80242269 -321.7109375 0.796875 C-320.63570454 0.79404762 -319.56047157 0.79122025 -318.45265579 0.78830719 C-312.77116911 0.77337253 -307.08970748 0.76410485 -301.40820312 0.75976562 C-295.54956823 0.75426561 -289.69116392 0.730189 -283.83260155 0.70179367 C-279.31496507 0.68315994 -274.79738434 0.67796146 -270.27971268 0.67642975 C-268.11960199 0.67340827 -265.95949216 0.66539684 -263.7994194 0.65224457 C-260.77934903 0.63515645 -257.75984542 0.63707033 -254.73974609 0.64355469 C-253.85332932 0.6343399 -252.96691254 0.62512512 -252.05363464 0.6156311 C-246.62541683 0.65207028 -242.78491237 1.36327361 -238 4 C-235.26720823 8.39198677 -234.58341403 12.89234812 -233.5625 17.9375 C-231.59272307 27.82798543 -231.59272307 27.82798543 -225 35 C-225 35.99 -225 36.98 -225 38 C-215.03581805 51.76693739 -199.31303658 60.76815448 -182.66796875 63.55859375 C-164.85352182 65.70239833 -147.90011337 62.60790926 -133.10546875 51.90625 C-129.92777333 49.39682529 -126.8637871 46.8637871 -124 44 C-124.33 43.34 -124.66 42.68 -125 42 C-124.25878906 41.65324219 -123.51757812 41.30648437 -122.75390625 40.94921875 C-119.25726596 38.47429179 -117.74397339 35.58055711 -115.9375 31.8125 C-115.59315918 31.11213623 -115.24881836 30.41177246 -114.89404297 29.69018555 C-111.95220136 23.43929472 -110.23775086 17.16150516 -108.7890625 10.42578125 C-108.0975887 7.42368957 -107.17783422 4.83206518 -106 2 C-94.57712653 0.96008127 -83.23750078 0.85284667 -71.77734375 0.8671875 C-69.85876961 0.8665123 -67.94019555 0.86554048 -66.0216217 0.86428833 C-62.03043796 0.86282473 -58.0392768 0.86492466 -54.0480957 0.86962891 C-48.9371994 0.87536045 -43.82635523 0.87201722 -38.71546078 0.86605644 C-34.76666368 0.86244427 -30.81787897 0.86359184 -26.8690815 0.86618423 C-24.98364824 0.86684988 -23.09821384 0.86603777 -21.21278191 0.86370468 C-18.58575316 0.86116359 -15.95880952 0.86503778 -13.33178711 0.87060547 C-12.17147224 0.86756912 -12.17147224 0.86756912 -10.98771667 0.86447144 C-7.2001212 0.87933266 -3.68225993 1.08483579 0 2 C0 1.34 0 0.68 0 0 Z " fill="#E0832F" transform="translate(684,142)"/>
<path d="M0 0 C0.33 0.66 0.66 1.32 1 2 C1.515625 1.814375 2.03125 1.62875 2.5625 1.4375 C5.85908739 0.84580483 8.72245735 1.432733 12 2 C13.86477197 6.97272524 15.17289235 11.70006036 16.02954102 16.9519043 C17.63331783 26.75024391 20.33664249 33.40594819 28 40 C33.83427309 44.04616581 38.12580346 46.02685553 45.3125 46.375 C50.18549386 46.72229578 53.90338327 47.12129635 58 50 C60.4558011 53.68370166 60.28189385 56.45092298 60.26006222 60.71095848 C60.26386789 61.50814604 60.26767356 62.30533359 60.27159455 63.12667835 C60.28197026 65.82054994 60.27799322 68.51421315 60.27415466 71.20809937 C60.27860382 73.14990815 60.2839168 75.09171511 60.29002339 77.03351939 C60.30425236 82.38724343 60.30586576 87.74090955 60.30542648 93.09464979 C60.30707037 98.86163004 60.32012876 104.62858612 60.33161926 110.39555359 C60.35450086 123.01307751 60.36239312 135.63058465 60.36744571 148.24812651 C60.37069877 156.12130834 60.37721882 163.99448527 60.3844471 171.86766434 C60.40401639 193.65166016 60.42050021 215.43565087 60.42332363 237.21965599 C60.42341769 237.91665903 60.42351175 238.61366207 60.42360866 239.33178642 C60.42398715 242.15654042 60.42435115 244.98129441 60.42471164 247.80604841 C60.42498336 249.93222238 60.42526004 252.05839634 60.42553711 254.18457031 C60.42562513 254.88713877 60.42571315 255.58970722 60.42580384 256.31356563 C60.42870998 278.39397894 60.45081099 300.47430476 60.48706055 322.5546875 C60.52776403 347.34881547 60.55146242 372.14288341 60.55178314 396.93704665 C60.55236875 410.07000021 60.56092699 423.20284117 60.58978081 436.33576584 C60.6142314 447.51622342 60.62162039 458.69652732 60.60653328 469.87700437 C60.5993387 475.58495818 60.60033128 481.29260813 60.62294388 487.00052834 C60.64342993 492.22151207 60.64103107 497.44195632 60.62006903 502.66293354 C60.61655419 504.55592563 60.6215677 506.44895584 60.63577347 508.34189789 C60.65379431 510.90771401 60.6412481 513.47160362 60.62082577 516.03735924 C60.63338914 516.77901333 60.64595251 517.52066742 60.6588966 518.28479588 C60.59243477 522.16317124 60.10651937 523.86479347 57.6770187 526.94859278 C54.28368103 529.54891731 51.98626194 529.75306111 47.75 530.0625 C37.63615104 531.06910322 29.75207631 534.13682252 23 542 C18.03342828 549.46109416 16.10037654 556.9387095 14.8359375 565.65234375 C13.88246335 569.47069585 12.84032844 571.29053993 10 574 C4.2481258 576.6666608 -1.74831027 576.3492045 -7.9609375 576.4140625 C-9.10664215 576.43342865 -10.2523468 576.4527948 -11.43276978 576.4727478 C-15.08010491 576.53236785 -18.7274719 576.57885918 -22.375 576.625 C-24.85287809 576.6631959 -27.33074314 576.70224857 -29.80859375 576.7421875 C-35.87227972 576.83805503 -41.93604474 576.92315385 -48 577 C-47.23856689 578.0204541 -46.47713379 579.0409082 -45.69262695 580.09228516 C-44.68681486 581.44939839 -43.68121058 582.80666566 -42.67578125 584.1640625 C-42.17469849 584.83445557 -41.67361572 585.50484863 -41.15734863 586.19555664 C-38.49168399 589.80340535 -36.15998109 593.32774216 -34.1875 597.375 C-32.22361495 600.45367863 -31.33858524 600.92177237 -27.703125 601.76171875 C-24.09997825 602.04952197 -20.61137165 602.10559566 -17 602 C-15.33333481 601.99778074 -13.66666369 601.99684941 -12 602 C-11.67 602.66 -11.34 603.32 -11 604 C-9.11584465 604.69030815 -9.11584465 604.69030815 -6.875 605.25 C-0.40159888 607.31159271 3.60070711 610.51738357 6.9375 616.4375 C10.4062164 628.06790206 5.16895259 640.49511044 -0.25 650.75 C-11.76969418 671.8714248 -11.76969418 671.8714248 -21.6015625 675.23046875 C-22.93874157 675.56571781 -24.2802243 675.88415513 -25.625 676.1875 C-26.33648193 676.35475586 -27.04796387 676.52201172 -27.78100586 676.69433594 C-33.51100298 677.991987 -39.1202742 678.81321313 -45 679 C-46.16015625 679.03996094 -47.3203125 679.07992187 -48.515625 679.12109375 C-61.85650033 679.35442182 -78.24725977 679.39619194 -88.5546875 669.6640625 C-91.96511154 665.73746618 -92.95966379 662.25042266 -93.125 657.125 C-91.83529988 650.04536957 -86.40990432 644.72883456 -80.75 640.6875 C-71.03021386 634.78035724 -61.12190473 633.14070818 -50 632 C-52.2558765 626.17155371 -55.27089077 621.26504964 -58.76953125 616.1015625 C-59.32815353 615.26716644 -59.88677582 614.43277039 -60.46232605 613.5730896 C-62.24029773 610.92004125 -64.02621502 608.27245627 -65.8125 605.625 C-67.00118658 603.85452611 -68.1893427 602.08369594 -69.37695312 600.3125 C-72.07366261 596.29236772 -74.77110246 592.27277454 -77.48829651 588.26644897 C-78.54669115 586.67963154 -79.58161059 585.07702027 -80.59849548 583.46328735 C-81.11803299 582.6468576 -81.6375705 581.83042786 -82.17285156 580.98925781 C-82.63459778 580.24814758 -83.09634399 579.50703735 -83.57208252 578.74346924 C-85.0136877 576.64817781 -85.0136877 576.64817781 -88.40234375 576.0078125 C-90.15224609 576.06582031 -90.15224609 576.06582031 -91.9375 576.125 C-97.5480895 576.06581657 -101.21013777 575.98035872 -106 573 C-108.79118685 569.15343902 -109.75909428 565.50229202 -110.6875 560.875 C-110.93886719 559.65554688 -111.19023438 558.43609375 -111.44921875 557.1796875 C-112 554 -112 554 -112 551 C-112.99 551.33 -113.98 551.66 -115 552 C-115 551.01 -115 550.02 -115 549 C-116.19679417 544.47809211 -117.91475486 541.41506249 -120.875 537.8125 C-121.55304688 536.97332031 -122.23109375 536.13414062 -122.9296875 535.26953125 C-124.84149105 533.1737617 -126.61723035 531.53035624 -129 530 C-129.66 530 -130.32 530 -131 530 C-131.24105469 529.40058594 -131.48210937 528.80117188 -131.73046875 528.18359375 C-136.03721468 520.77599074 -148.30552975 517.45090359 -156 515 C-174.59134409 510.7490125 -192.91016788 514.14626521 -208.91015625 524.01171875 C-221.61449835 532.18682637 -230.53068055 545.65136604 -233.75390625 560.46484375 C-234.09228516 562.18380859 -234.09228516 562.18380859 -234.4375 563.9375 C-235.86364577 570.59815848 -235.86364577 570.59815848 -238.75 573.1875 C-245.07885087 576.71705145 -250.87156867 577.28242435 -257.9375 577.125 C-258.71673828 577.11597656 -259.49597656 577.10695313 -260.29882812 577.09765625 C-262.19935447 577.07433691 -264.09972008 577.03847586 -266 577 C-266.21947296 577.5486824 -266.43894592 578.09736481 -266.66506958 578.66267395 C-267.34060458 580.35151146 -268.01615334 582.04034347 -268.69171143 583.72917175 C-269.49922297 585.74802302 -270.3066335 587.76691468 -271.11395264 589.7858429 C-273.36547029 595.41594413 -275.61881545 601.04530277 -277.87548828 606.67333984 C-282.03237185 617.04530822 -286.17787259 627.42034172 -290.234375 637.83203125 C-291.1599895 640.19451742 -292.08657962 642.55661802 -293.01361084 644.91854858 C-293.58175954 646.37386352 -294.14554217 647.83089154 -294.70465088 649.28970337 C-301.63367077 667.36372575 -301.63367077 667.36372575 -309.3125 672 C-320.66082092 675.07751076 -330.9716874 670.90177416 -341.58984375 666.8671875 C-343.88882702 665.98482142 -343.88882702 665.98482142 -345.8972168 665.56884766 C-362.49387308 661.07909854 -382.77791562 647.07205336 -393.5 633.9375 C-396.97506963 627.13215531 -398.03465967 620.42408559 -396 613 C-392.76504181 606.93445339 -387.40450348 603.98539608 -381 602 C-375.49740821 600.68558267 -370.21785869 601.09043958 -364.625 601.4375 C-363.69816406 601.48970703 -362.77132812 601.54191406 -361.81640625 601.59570312 C-359.54386099 601.72455878 -357.27184901 601.85948311 -355 602 C-355 602.66 -355 603.32 -355 604 C-353.845 604.165 -352.69 604.33 -351.5 604.5 C-343.81237028 606.18395699 -336.87675446 610.29177544 -330 614 C-329.33516602 614.35610352 -328.67033203 614.71220703 -327.98535156 615.07910156 C-323.12264773 617.75470454 -323.12264773 617.75470454 -322 620 C-320.35636866 620.72159424 -318.68949614 621.39351421 -317 622 C-316.88825439 621.14494873 -316.77650879 620.28989746 -316.66137695 619.40893555 C-315.96447156 615.81687576 -314.8450289 612.82337334 -313.41796875 609.45703125 C-313.16251785 608.84792404 -312.90706696 608.23881683 -312.64387512 607.61125183 C-311.8311121 605.675727 -311.00987565 603.74395772 -310.1875 601.8125 C-309.3771632 599.89837411 -308.56879505 597.98345822 -307.76325989 596.06730652 C-307.02595839 594.31513577 -306.28305912 592.56532355 -305.53979492 590.81567383 C-303.52298071 585.9419118 -301.77635275 580.96517989 -300 576 C-300.58580338 576.00666183 -301.17160675 576.01332367 -301.77516174 576.02018738 C-307.89114881 576.08673514 -314.00703243 576.13188114 -320.12329102 576.16479492 C-322.40360698 576.17984918 -324.68389414 576.20029708 -326.96411133 576.22631836 C-330.24828209 576.26284894 -333.53206885 576.27976039 -336.81640625 576.29296875 C-337.83021866 576.30845261 -338.84403107 576.32393646 -339.88856506 576.33988953 C-346.5187419 576.34145371 -351.39454442 575.64752073 -356.8671875 571.62890625 C-358.38142008 569.45154423 -358.70248064 567.54559677 -359.125 564.9375 C-359.69521736 561.34975759 -359.69521736 561.34975759 -361 558 C-361.061875 557.01 -361.12375 556.02 -361.1875 555 C-362.19589607 547.56889666 -367.25906014 540.71541959 -373.12109375 536.24609375 C-381.99079765 530.36369137 -390.62784191 530.23816666 -401 530 C-401 529.01 -401 528.02 -401 527 C-401.48721358 526.43905716 -401.97442716 525.87811433 -402.47640479 525.30017322 C-404.63509182 522.04120124 -404.41336358 518.97592367 -404.37752342 515.19722843 C-404.38188374 514.40226378 -404.38624407 513.60729913 -404.39073652 512.78824463 C-404.40173898 510.10785015 -404.39124764 507.42796511 -404.38095093 504.74757385 C-404.38440552 502.81315103 -404.38916875 500.87873018 -404.39513266 498.94431347 C-404.40769964 493.6156126 -404.40144643 488.28707214 -404.39217401 482.95837057 C-404.38540707 477.21663071 -404.39585305 471.47491912 -404.40411377 465.73318481 C-404.41747878 454.47969107 -404.41456098 443.22625723 -404.40587585 431.9727611 C-404.39911024 422.82910986 -404.39817771 413.68547545 -404.4014473 404.54182243 C-404.401907 403.24216359 -404.40236669 401.94250474 -404.40284032 400.60346229 C-404.40379947 397.96350408 -404.40477211 395.32354587 -404.4057581 392.68358766 C-404.41407593 368.61418088 -404.40543873 344.54480565 -404.38973031 320.47540399 C-404.37549467 298.49554802 -404.37676544 276.51574419 -404.39111328 254.53588867 C-404.40717231 229.85198967 -404.41349447 205.1681207 -404.40427649 180.48421711 C-404.40332081 177.85347585 -404.4023777 175.22273459 -404.4014473 172.59199333 C-404.40098447 171.29750913 -404.40052164 170.00302492 -404.40004479 168.66931393 C-404.39745127 159.5339612 -404.40183373 150.39862693 -404.40888596 141.26327705 C-404.41728821 130.13410177 -404.41504776 119.00498999 -404.39904372 107.87582202 C-404.39114359 102.19426664 -404.38809902 96.51281725 -404.39799118 90.83126259 C-404.40690263 85.63448181 -404.40206398 80.43790568 -404.38605852 75.24114358 C-404.38269561 73.35693568 -404.38443847 71.47271064 -404.39168589 69.58851368 C-404.40075766 67.03496464 -404.39150368 64.48212424 -404.37752342 61.92861271 C-404.38454692 61.19045316 -404.39157042 60.4522936 -404.39880675 59.69176558 C-404.35047134 55.29952652 -403.70317115 52.495633 -401 49 C-399.16015625 48.14453125 -399.16015625 48.14453125 -397.0625 47.8125 C-396.27101563 47.67070312 -395.47953125 47.52890625 -394.6640625 47.3828125 C-392.78590426 47.11293052 -390.90538689 46.85922299 -389.0234375 46.6171875 C-379.02890442 45.22554365 -372.93926379 42.00500556 -366.53125 34.140625 C-361.79533985 27.52001591 -360.29945686 20.62357377 -359.30175781 12.671875 C-358.78373146 9.19345541 -357.98201728 6.97418219 -355.96484375 4.078125 C-349.8649831 -0.19740315 -341.23265986 0.84802828 -334.00146484 0.83886719 C-333.04579117 0.83390228 -332.09011749 0.82893738 -331.10548401 0.82382202 C-327.97396096 0.80932852 -324.84248843 0.80242269 -321.7109375 0.796875 C-320.63570454 0.79404762 -319.56047157 0.79122025 -318.45265579 0.78830719 C-312.77116911 0.77337253 -307.08970748 0.76410485 -301.40820312 0.75976562 C-295.54956823 0.75426561 -289.69116392 0.730189 -283.83260155 0.70179367 C-279.31496507 0.68315994 -274.79738434 0.67796146 -270.27971268 0.67642975 C-268.11960199 0.67340827 -265.95949216 0.66539684 -263.7994194 0.65224457 C-260.77934903 0.63515645 -257.75984542 0.63707033 -254.73974609 0.64355469 C-253.85332932 0.6343399 -252.96691254 0.62512512 -252.05363464 0.6156311 C-246.62541683 0.65207028 -242.78491237 1.36327361 -238 4 C-235.26720823 8.39198677 -234.58341403 12.89234812 -233.5625 17.9375 C-231.59272307 27.82798543 -231.59272307 27.82798543 -225 35 C-225 35.99 -225 36.98 -225 38 C-215.03581805 51.76693739 -199.31303658 60.76815448 -182.66796875 63.55859375 C-164.85352182 65.70239833 -147.90011337 62.60790926 -133.10546875 51.90625 C-129.92777333 49.39682529 -126.8637871 46.8637871 -124 44 C-124.33 43.34 -124.66 42.68 -125 42 C-124.25878906 41.65324219 -123.51757812 41.30648437 -122.75390625 40.94921875 C-119.25726596 38.47429179 -117.74397339 35.58055711 -115.9375 31.8125 C-115.59315918 31.11213623 -115.24881836 30.41177246 -114.89404297 29.69018555 C-111.95220136 23.43929472 -110.23775086 17.16150516 -108.7890625 10.42578125 C-108.0975887 7.42368957 -107.17783422 4.83206518 -106 2 C-94.57712653 0.96008127 -83.23750078 0.85284667 -71.77734375 0.8671875 C-69.85876961 0.8665123 -67.94019555 0.86554048 -66.0216217 0.86428833 C-62.03043796 0.86282473 -58.0392768 0.86492466 -54.0480957 0.86962891 C-48.9371994 0.87536045 -43.82635523 0.87201722 -38.71546078 0.86605644 C-34.76666368 0.86244427 -30.81787897 0.86359184 -26.8690815 0.86618423 C-24.98364824 0.86684988 -23.09821384 0.86603777 -21.21278191 0.86370468 C-18.58575316 0.86116359 -15.95880952 0.86503778 -13.33178711 0.87060547 C-12.17147224 0.86756912 -12.17147224 0.86756912 -10.98771667 0.86447144 C-7.2001212 0.87933266 -3.68225993 1.08483579 0 2 C0 1.34 0 0.68 0 0 Z M-339 23 C-339.99 26.63 -340.98 30.26 -342 34 C-347.94945048 47.76872824 -357.14761895 58.54544431 -371.25 64.375 C-375.12634386 65.80523722 -379.00497073 66.85856307 -383 68 C-383 81.86 -383 95.72 -383 110 C-380.03 110.66 -377.06 111.32 -374 112 C-370.94100694 115.20821223 -370.11402069 117.18760261 -369.5 121.5625 C-370.10917014 125.7505447 -370.77594763 127.24776017 -374 130 C-378.455 130.99 -378.455 130.99 -383 132 C-383 256.74 -383 381.48 -383 510 C-377.555 511.485 -377.555 511.485 -372 513 C-358.93501311 518.46793896 -350.30427087 527.42989893 -344 540 C-342.35 544.29 -340.7 548.58 -339 553 C-297.42 553.495 -297.42 553.495 -255 554 C-252.36 547.4 -249.72 540.8 -247 534 C-244.38305979 529.92920412 -242.09655547 526.58517544 -239 523 C-237.95199219 521.71416016 -237.95199219 521.71416016 -236.8828125 520.40234375 C-223.53818434 504.6594817 -203.41007974 494.62728082 -183 492 C-156.67594161 490.42372544 -134.1742618 495.72018957 -113.8125 513.3125 C-101.14264334 525.21079488 -94.55988133 537.28043511 -90 554 C-62.28 553.67 -34.56 553.34 -6 553 C-3.03 545.575 -3.03 545.575 0 538 C1.94620943 534.78279665 3.74417189 531.93941239 6 529 C7.11375 527.453125 7.11375 527.453125 8.25 525.875 C16.95975177 516.76935042 26.77807562 512.44438488 39 510 C39 385.26 39 260.52 39 132 C35.7 131.34 32.4 130.68 29 130 C25.61279981 126.61279981 25.12015846 125.29771141 24.6875 120.625 C25 117 25 117 26.375 114.1875 C29 112 29 112 39 110 C39 96.14 39 82.28 39 68 C34.71 66.68 30.42 65.36 26 64 C10.94736734 56.97543809 1.55089978 45.28889676 -4.0546875 29.8828125 C-4.79756051 27.6173568 -5.42175978 25.31296089 -6 23 C-33.39 23 -60.78 23 -89 23 C-90.98 28.28 -92.96 33.56 -95 39 C-99.42327436 47.51271669 -104.34435346 54.14085347 -111 61 C-111.55171875 61.62519531 -112.1034375 62.25039062 -112.671875 62.89453125 C-125.63033413 77.10393074 -147.27438618 84.42873136 -165.9921875 85.3515625 C-189.01778015 86.06620867 -211.06280311 81.60438288 -228.5 65.5625 C-230.37912379 63.74609772 -232.18719635 61.88510158 -234 60 C-234.82113281 59.175 -235.64226562 58.35 -236.48828125 57.5 C-246.33418652 47.17421027 -250.40435781 36.78692657 -255 23 C-282.72 23 -310.44 23 -339 23 Z " fill="#1D1C11" transform="translate(684,142)"/>
<path d="M0 0 C3.98057595 2.55357703 6.95642104 5.2682532 8.58984375 9.81640625 C11.46576602 25.12726863 3.35277022 43.4213493 -5 56 C-8.37474303 60.59716931 -12.1350128 64.8134178 -16 69 C-16.59425781 69.67546875 -17.18851563 70.3509375 -17.80078125 71.046875 C-23.03547716 76.71021846 -29.56857431 80.83021632 -36 85 C-36.94875 85.62132812 -37.8975 86.24265625 -38.875 86.8828125 C-56.98012573 98.09793205 -78.70250742 104.00255511 -99.953125 104.23828125 C-101.05413292 104.25290405 -101.05413292 104.25290405 -102.17738342 104.26782227 C-117.83721038 104.43317711 -132.84530956 104.45166745 -148 100 C-148.66112793 99.81808105 -149.32225586 99.63616211 -150.00341797 99.44873047 C-177.48876143 91.7922457 -202.84682996 74.01087156 -217 49 C-223.26511437 36.87004245 -228.81133896 22.88693202 -227 9 C-225.04452798 4.6040989 -222.50559149 1.7741798 -218 0 C-213.14557939 -0.68891118 -209.12048506 -0.49799336 -204.625 1.5 C-199.70117929 6.18935306 -198.15912355 11.03327838 -196.70874023 17.51611328 C-192.61438811 35.78054091 -182.76255316 50.51969096 -167 61 C-158.18651134 66.13743933 -148.87850921 70.40171359 -139 73 C-137.87207031 73.29777344 -136.74414062 73.59554687 -135.58203125 73.90234375 C-107.29263964 80.26379243 -76.91805437 75.74456835 -52 61 C-48.47573753 58.5217925 -45.23145539 55.84320289 -42 53 C-41.17886719 52.38382812 -40.35773438 51.76765625 -39.51171875 51.1328125 C-29.56448893 42.68617567 -25.08182107 30.22866782 -21.953125 17.95703125 C-21.69559448 16.950354 -21.69559448 16.950354 -21.43286133 15.92333984 C-20.96465108 14.04634518 -20.52630559 12.16197391 -20.08984375 10.27734375 C-18.43984235 5.31551159 -16.25656817 2.72494317 -11.75 0.125 C-7.3803479 -1.18589563 -4.33397951 -1.42704203 0 0 Z " fill="#1D1A0F" transform="translate(621,438)"/>
<path d="M0 0 C6.97696521 5.08235828 11.13440897 12.92985735 12.8125 21.3203125 C13.63037719 31.16629559 12.21073873 40.50024294 5.8125 48.3203125 C0.60341112 53.60563195 -4.03276114 56.28272407 -11.5625 56.6953125 C-17.51005432 56.51568838 -21.78148451 54.54310437 -26.13671875 50.51953125 C-33.56911818 42.49503291 -35.61845592 34.06935933 -35.45703125 23.25390625 C-34.587593 13.79088993 -30.25935273 6.53659136 -23.1875 0.3203125 C-15.9139175 -4.12465459 -7.39173451 -4.2621695 0 0 Z " fill="#1C1A0F" transform="translate(436.1875,344.6796875)"/>
<path d="M0 0 C7.50395515 4.61978191 12.1425626 11.52969892 14.421875 19.9765625 C15.4097591 30.85477465 14.89758995 41.35561673 8.109375 50.4140625 C3.87054355 54.455739 -0.61008015 57.37975801 -6.578125 57.9765625 C-7.63 58.1003125 -8.681875 58.2240625 -9.765625 58.3515625 C-15.84977807 57.75312121 -21.00968012 55.44828769 -25.4453125 51.1796875 C-32.92286186 41.87925297 -33.61554162 31.48245589 -32.578125 19.9765625 C-30.60224082 11.69666687 -24.53215679 4.69536979 -17.578125 -0.0234375 C-11.92723215 -1.90706845 -5.59298055 -2.22024379 0 0 Z " fill="#1C1A0F" transform="translate(607.578125,343.0234375)"/>
<path d="M0 0 C1.32 0 2.64 0 4 0 C4 13.86 4 27.72 4 42 C0.7 42.66 -2.6 43.32 -6 44 C-9.32992515 46.77493762 -9.90123304 48.20986435 -10.4375 52.5 C-9.97547385 56.19620922 -9.25816593 58.07274787 -7 61 C-3.47825081 63.67082039 -3.47825081 63.67082039 4 64 C4 188.41 4 312.82 4 441 C3.34 441 2.68 441 2 441 C2 317.25 2 193.5 2 66 C-0.31 65.67 -2.62 65.34 -5 65 C-7.97305511 63.30026531 -10.45018474 61.09963051 -12 58 C-12.51512617 53.90842645 -12.94367269 49.76410454 -10.953125 46.04296875 C-9.18601378 43.90684313 -7.49101659 42.24550829 -5 41 C-2.3276379 40.86584528 0.32250488 40.95681459 3 41 C2.505 39.515 2.505 39.515 2 38 C1.91481133 35.19573548 1.8841148 32.4170365 1.90234375 29.61328125 C1.9037587 28.79627243 1.90517365 27.97926361 1.90663147 27.13749695 C1.91222706 24.52912732 1.92477871 21.92084366 1.9375 19.3125 C1.94251557 17.54362103 1.94707838 15.77474072 1.95117188 14.00585938 C1.96219504 9.67053981 1.97945662 5.33528448 2 1 C1.34 0.67 0.68 0.34 0 0 Z " fill="#F7A53B" transform="translate(719,210)"/>
<path d="M0 0 C2.97551795 1.77603298 5.42755188 3.85510377 7 7 C7.68128376 13.81283762 7.68128376 13.81283762 5.953125 16.82421875 C4.17156722 18.98828747 2.52390368 20.73804816 0 22 C-5.29304255 22.34708476 -8.73358414 22.51351894 -13 19 C-15.31037033 16.02952386 -15.47390986 12.74827277 -15.390625 9.03515625 C-14.68178128 5.34208047 -12.68861189 3.56356018 -10 1 C-6.34711807 -0.21762731 -3.84245864 -0.39075851 0 0 Z " fill="#1B180E" transform="translate(446,252)"/>
<path d="M0 0 C2.97239241 1.78476241 5.42604027 3.85208055 7 7 C7.55512815 11.63213493 7.6364242 14.98172127 5.125 19 C1.63362508 22.28599993 -1.01736104 22.41461134 -5.671875 22.33203125 C-9.88612634 21.73100547 -11.29181427 20.31752752 -14 17 C-15.05315925 13.91979229 -15.34756073 11.23630321 -15 8 C-13.40804049 4.75711951 -12.05395191 2.79954972 -9.1875 0.625 C-5.89024117 -0.31707395 -3.4187401 -0.41260656 0 0 Z " fill="#1D180E" transform="translate(584,252)"/>
<path d="M0 0 C2.92015721 2.27123338 4.02298397 4.27439581 4.5859375 7.93359375 C4.65631094 11.99414136 4.58645704 14.1931056 2.4375 17.75 C-0.92774967 20.82679969 -4.17986957 21.17335597 -8.6796875 21.08203125 C-12.56451145 20.45899345 -14.28369654 18.69753341 -16.75 15.75 C-18.36527814 11.05100903 -18.24866862 7.80487592 -16.125 3.3125 C-11.60798745 -1.56111881 -6.14981463 -2.79537028 0 0 Z " fill="#1E1A0F" transform="translate(402.75,253.25)"/>
<path d="M0 0 C3.04739688 1.31592138 4.6866919 2.64491749 6.875 5.125 C8.50942687 9.30186866 8.36425243 12.73767461 7 17 C4.32543417 20.27634314 2.87850772 21.63024101 -1.22265625 22.4375 C-5.31359542 22.65604767 -7.47299216 22.3293799 -11 20.125 C-14.4278163 16.48294519 -14.5220736 13.42582607 -14.47265625 8.5546875 C-13.77277171 4.77184048 -12.07040674 3.18291127 -9.00390625 0.99609375 C-5.80388961 -0.5945578 -3.48773085 -0.58128847 0 0 Z " fill="#1D180E" transform="translate(354,252)"/>
<path d="M0 0 C2.97551795 1.77603298 5.42755188 3.85510377 7 7 C7.68128376 13.81283762 7.68128376 13.81283762 5.953125 16.82421875 C2.82207185 20.62752744 1.13366332 21.88663367 -3.75 22.375 C-7.10058068 22.35058775 -8.84894532 21.75601354 -11.4375 19.625 C-14.88191242 16.09657752 -15.4006951 14.07132244 -15.35546875 9.10546875 C-14.72046773 5.34430885 -12.72377681 3.59708952 -10 1 C-6.34711807 -0.21762731 -3.84245864 -0.39075851 0 0 Z " fill="#1C180E" transform="translate(492,252)"/>
<path d="M0 0 C2.97239241 1.78476241 5.42604027 3.85208055 7 7 C7.50866466 13.10397596 7.05703618 16.10769166 3 21 C-0.46250243 22.73125121 -4.21408229 22.47815224 -8 22 C-11.47485838 19.92987161 -13.74352278 17.88365688 -15 14 C-15.51555338 10.0474241 -15.15914688 8.2955585 -13.25 4.75 C-9.33687857 -0.03270397 -6.17926172 -0.74577297 0 0 Z " fill="#1D180E" transform="translate(538,252)"/>
<path d="M0 0 C3.04739688 1.31592138 4.6866919 2.64491749 6.875 5.125 C8.50794253 9.29807535 8.37050269 12.74220233 7 17 C4.54972455 19.92837797 2.80079122 21.56680768 -0.96484375 22.47265625 C-4.91972697 22.76870317 -7.33838332 22.12212999 -10.4375 19.625 C-13.44219617 16.54701856 -13.92940903 15.93533034 -14.25 11.6875 C-13.9247818 6.89053152 -12.53495381 4.58977359 -9.25 1.1875 C-5.99828436 -0.52868326 -3.62539838 -0.38162088 0 0 Z " fill="#1B180E" transform="translate(676,252)"/>
<path d="M0 0 C3.56533488 2.17020384 5.44386585 4.16574154 7 8 C7.42868509 12.99239508 6.66577728 16.20431495 3.4375 20.0625 C-0.62751709 22.35369145 -3.44435569 23.15928921 -8 22 C-11.01286852 20.23002108 -13.41228811 18.17542377 -15 15 C-15.54802111 9.30058046 -14.60961802 6.43467357 -11 2 C-7.3078813 -0.46141247 -4.28645195 -0.68650207 0 0 Z " fill="#1C180E" transform="translate(631,252)"/>
<path d="M0 0 C1.28210861 -0.00315216 2.56421722 -0.00630432 3.88517761 -0.009552 C5.26891108 -0.00776091 6.65264423 -0.00570964 8.03637695 -0.00341797 C9.47736121 -0.004093 10.91834535 -0.00506468 12.35932922 -0.00631714 C15.37432951 -0.00778711 18.38930006 -0.00566373 21.40429688 -0.00097656 C25.23564646 0.00469456 29.06692556 0.00145391 32.89827251 -0.00454903 C35.87458305 -0.00819566 38.85087742 -0.00699696 41.82718849 -0.00442123 C43.23793356 -0.00376192 44.64868019 -0.00454488 46.05942345 -0.00690079 C54.53969973 -0.01794905 62.89901274 0.2629461 71.3371582 1.12939453 C71.6259082 2.18126953 71.9146582 3.23314453 72.2121582 4.31689453 C73.21581165 8.00000354 73.21581165 8.00000354 74.5246582 10.87939453 C75.3371582 13.12939453 75.3371582 13.12939453 74.3371582 16.12939453 C73.66187598 14.54971646 72.99726126 12.9654755 72.3371582 11.37939453 C71.9659082 10.49767578 71.5946582 9.61595703 71.2121582 8.70751953 C70.3371582 6.12939453 70.3371582 6.12939453 70.3371582 2.12939453 C69.07171928 2.23536453 69.07171928 2.23536453 67.78071594 2.34347534 C59.14873006 3.0196791 50.60248206 3.2764147 41.94262695 3.26220703 C40.62982254 3.26316376 39.31701813 3.26412048 37.96443176 3.2651062 C35.21406855 3.26656407 32.46373824 3.26448942 29.71337891 3.25976562 C26.21262875 3.2540411 22.71195483 3.25737668 19.21120739 3.26333809 C15.83000797 3.26784281 12.44882852 3.26468014 9.06762695 3.26220703 C7.82369675 3.26423126 6.57976654 3.26625549 5.29814148 3.26834106 C-1.10777709 3.2511618 -7.31290097 2.98672381 -13.6628418 2.12939453 C-13.6628418 1.79939453 -13.6628418 1.46939453 -13.6628418 1.12939453 C-9.0645472 0.3958427 -4.65470685 0.00330428 0 0 Z " fill="#2D2011" transform="translate(607.662841796875,162.87060546875)"/>
<path d="M0 0 C0.70485535 -0.00175232 1.40971069 -0.00350464 2.13592529 -0.00531006 C4.44928501 -0.00968579 6.76256733 -0.00680605 9.07592773 -0.00341797 C10.69205235 -0.00409216 12.30817687 -0.00506315 13.92430115 -0.00631714 C17.30419891 -0.00778825 20.68407017 -0.00565814 24.06396484 -0.00097656 C28.39039242 0.00472495 32.71675801 0.00143533 37.04318333 -0.00454903 C40.37778692 -0.00816657 43.71237587 -0.00701064 47.0469799 -0.00442123 C48.64214015 -0.00375551 50.23730173 -0.00456798 51.8324604 -0.00690079 C54.06282182 -0.0094474 56.29308349 -0.00555863 58.5234375 0 C60.42489281 0.00119339 60.42489281 0.00119339 62.36476135 0.00241089 C65.2772838 0.11339944 67.8703818 0.451667 70.69702148 1.12939453 C70.69702148 1.45939453 70.69702148 1.78939453 70.69702148 2.12939453 C66.65680868 3.09178069 62.88691474 3.25609735 58.73876953 3.25878906 C57.71819458 3.26141754 57.71819458 3.26141754 56.67700195 3.26409912 C54.43755508 3.26848422 52.19818785 3.26559045 49.95874023 3.26220703 C48.39321375 3.26288126 46.82768738 3.26385229 45.26216125 3.2651062 C41.98303225 3.26657885 38.70393052 3.26444339 35.42480469 3.25976562 C31.23876859 3.25408276 27.05279683 3.25734093 22.86676311 3.26333809 C19.63326033 3.26696748 16.39977256 3.26579397 13.1662693 3.2632103 C11.62382817 3.26254686 10.08138565 3.26334888 8.53894615 3.26568985 C6.37374692 3.26825399 4.20864881 3.26432273 2.04345703 3.25878906 C0.81499557 3.25799347 -0.41346588 3.25719788 -1.67915344 3.25637817 C-5.61921865 3.11831306 -9.39985016 2.67163726 -13.30297852 2.12939453 C-13.30297852 1.79939453 -13.30297852 1.46939453 -13.30297852 1.12939453 C-8.81432364 0.26131057 -4.56889508 0.00286573 0 0 Z " fill="#2B2011" transform="translate(358.302978515625,162.87060546875)"/>
<path d="M0 0 C0.495 0.99 0.495 0.99 1 2 C1.515625 1.814375 2.03125 1.62875 2.5625 1.4375 C5.85908739 0.84580483 8.72245735 1.432733 12 2 C14.09230769 6.43076923 14.09230769 6.43076923 13.625 9.3125 C13.41875 9.869375 13.2125 10.42625 13 11 C13 10.01 13 9.02 13 8 C11.68 7.67 10.36 7.34 9 7 C8.505 5.02 8.505 5.02 8 3 C-28.63 3 -65.26 3 -103 3 C-103 2.67 -103 2.34 -103 2 C-92.71258779 0.70875849 -82.41732312 0.85435133 -72.0703125 0.8671875 C-70.14745064 0.86651276 -68.22458886 0.86554132 -66.30172729 0.86428833 C-62.29261454 0.86282148 -58.2835242 0.86493462 -54.27441406 0.86962891 C-49.13989051 0.8753488 -44.00541898 0.87202654 -38.87089729 0.86605644 C-34.90922656 0.86244316 -30.94756817 0.86359256 -26.98589706 0.86618423 C-25.09209054 0.86685018 -23.19828289 0.86603672 -21.30447769 0.86370468 C-18.66275301 0.86116305 -16.02111292 0.86503907 -13.37939453 0.87060547 C-12.60113815 0.86858124 -11.82288177 0.86655701 -11.02104187 0.86447144 C-7.22246845 0.87928636 -3.69281767 1.08083003 0 2 C0 1.34 0 0.68 0 0 Z " fill="#322E20" transform="translate(684,142)"/>
<path d="M0 0 C7.59 0.33 15.18 0.66 23 1 C23 1.33 23 1.66 23 2 C25.97 2.495 25.97 2.495 29 3 C29 3.33 29 3.66 29 4 C19.05603122 4.25068829 9.8223548 3.6950751 0 2 C0 1.34 0 0.68 0 0 Z " fill="#2A281E" transform="translate(610,817)"/>
<path d="M0 0 C0.75410156 0.00451172 1.50820313 0.00902344 2.28515625 0.01367188 C4.14847127 0.02546501 6.01174555 0.04340058 7.875 0.0625 C3.85216714 2.74438857 0.52779009 2.43891079 -4.21484375 2.62109375 C-7.38040017 3.10123855 -8.77912494 3.94273338 -11.125 6.0625 C-10.75 3.625 -10.75 3.625 -10.125 1.0625 C-6.93675432 -0.53162284 -3.49603338 -0.03924735 0 0 Z " fill="#11100A" transform="translate(293.125,189.9375)"/>
<path d="M0 0 C0.99 0.33 1.98 0.66 3 1 C2.67 3.31 2.34 5.62 2 8 C2.66 8 3.32 8 4 8 C4.28875 8.9075 4.5775 9.815 4.875 10.75 C5.76531776 13.32202908 6.71494413 15.61346766 8 18 C4.13995876 16.53584643 2.73327733 14.7141657 1 11 C0.60612212 8.67612053 0.26513915 6.34206251 0 4 C-0.33 3.34 -0.66 2.68 -1 2 C-0.67 1.34 -0.34 0.68 0 0 Z " fill="#2F2B1E" transform="translate(324,698)"/>
<path d="M0 0 C2.19140625 1.515625 2.19140625 1.515625 4 3 C3.18015625 2.94199219 2.3603125 2.88398438 1.515625 2.82421875 C-5.078534 2.31500818 -5.078534 2.31500818 -10.6875 5.1875 C-11.93136833 7.85293214 -12.666746 10.0840275 -13 13 C-13.33 13 -13.66 13 -14 13 C-14.43494462 8.56356484 -14.54001196 6.67136622 -11.6875 3.125 C-7.80165684 0.05247285 -4.86540365 -0.39717581 0 0 Z " fill="#0F0B06" transform="translate(400,252)"/>
<path d="M0 0 C-3.17744001 1.61130844 -6.38953675 3.13372179 -9.625 4.625 C-10.58664062 5.07101562 -11.54828125 5.51703125 -12.5390625 5.9765625 C-15 7 -15 7 -17 7 C-16 4 -16 4 -14.1796875 2.83203125 C-9.16837562 0.61516278 -5.48012349 -0.46639349 0 0 Z " fill="#2D2619" transform="translate(495,656)"/>
<path d="M0 0 C0 0.33 0 0.66 0 1 C-6.35987804 1.20190089 -11.85221129 0.6277833 -18 -1 C-12.05708319 -4.36635811 -6.15319663 -1.88363162 0 0 Z " fill="#2D2B1F" transform="translate(371,814)"/>
<path d="M0 0 C5.28 0.33 10.56 0.66 16 1 C16 1.33 16 1.66 16 2 C8.08 2.495 8.08 2.495 0 3 C0 2.01 0 1.02 0 0 Z " fill="#343224" transform="translate(309,743)"/>
<path d="M0 0 C3.3125 -0.25 3.3125 -0.25 7 0 C7.99 1.32 8.98 2.64 10 4 C4.39 3.67 -1.22 3.34 -7 3 C-7 2.67 -7 2.34 -7 2 C-3.535 1.505 -3.535 1.505 0 1 C0 0.67 0 0.34 0 0 Z " fill="#332F1F" transform="translate(592,715)"/>
<path d="M0 0 C1.98 0.66 3.96 1.32 6 2 C6 2.66 6 3.32 6 4 C7.32 4.66 8.64 5.32 10 6 C7 7 7 7 3.875 5.8125 C1 4 1 4 0.125 1.8125 C0.08375 1.214375 0.0425 0.61625 0 0 Z " fill="#262217" transform="translate(536,656)"/>
<path d="M0 0 C0 3.65351863 -0.88942301 5.06026776 -3 8 C-5.1875 9.3125 -5.1875 9.3125 -7 10 C-7.66 9.34 -8.32 8.68 -9 8 C-6.21751321 5.06293061 -3.12061789 2.56584137 0 0 Z " fill="#272317" transform="translate(314,180)"/>
<path d="M0 0 C-1.65 0.33 -3.3 0.66 -5 1 C-4.67 1.99 -4.34 2.98 -4 4 C-6.875 4.625 -6.875 4.625 -10 5 C-10.66 4.34 -11.32 3.68 -12 3 C-10.5682384 2.30062798 -9.12932968 1.61587282 -7.6875 0.9375 C-6.48673828 0.36322266 -6.48673828 0.36322266 -5.26171875 -0.22265625 C-3 -1 -3 -1 0 0 Z " fill="#2A291D" transform="translate(618,778)"/>
<path d="M0 0 C0 3 0 3 -2.125 6.25 C-3.548125 7.61125 -3.548125 7.61125 -5 9 C-8.3125 8.875 -8.3125 8.875 -11 8 C-9 6 -9 6 -6.0625 4.5625 C-3.43292134 3.22087824 -1.88632119 2.20070805 0 0 Z " fill="#EEA43E" transform="translate(637,268)"/>
<path d="M0 0 C-1.15585285 3.91211733 -2.35534962 6.8745041 -5 10 C-5.3669579 3.51707705 -5.3669579 3.51707705 -3.625 1.0625 C-2 0 -2 0 0 0 Z " fill="#24231A" transform="translate(686,786)"/>
<path d="M0 0 C2.32622007 4.65244014 0.98524838 11.0737581 0 16 C-0.33 16 -0.66 16 -1 16 C-2.0006709 10.03654233 -2.0662997 5.71271093 0 0 Z " fill="#323023" transform="translate(289,754)"/>
<path d="M0 0 C0.33 0 0.66 0 1 0 C1.34615998 5.65394631 0.43425238 9.03006806 -2 14 C-3.51266251 9.63008608 -2.80158879 5.7917867 -0.9375 1.625 C-0.4734375 0.820625 -0.4734375 0.820625 0 0 Z " fill="#29271D" transform="translate(698,700)"/>
<path d="M0 0 C2.5722047 1.28610235 3.00974907 2.33393981 4 5 C3.625 7.25 3.625 7.25 3 9 C3 8.01 3 7.02 3 6 C1.68 5.67 0.36 5.34 -1 5 C-1.33 3.68 -1.66 2.36 -2 1 C-1.34 0.67 -0.68 0.34 0 0 Z " fill="#29251A" transform="translate(694,144)"/>
<path d="M0 0 C4.24822374 0.47202486 6.19989709 2.96655518 9 6 C8.67 6.99 8.34 7.98 8 9 C6.66368764 7.6905332 5.33102075 6.37734515 4 5.0625 C3.2575 4.33160156 2.515 3.60070312 1.75 2.84765625 C0 1 0 1 0 0 Z " fill="#232119" transform="translate(292,777)"/>
<path d="M0 0 C1.32 0 2.64 0 4 0 C2.44298069 4.67105792 -0.08447373 8.08705685 -3 12 C-3.33 11.34 -3.66 10.68 -4 10 C-3.00664799 8.32936253 -2.00568242 6.66324401 -1 5 C-0.29329272 2.30745009 -0.29329272 2.30745009 0 0 Z " fill="#E9A53F" transform="translate(440,664)"/>
<path d="M0 0 C0.33 0 0.66 0 1 0 C1.66 4.95 2.32 9.9 3 15 C2.01 14.67 1.02 14.34 0 14 C-1.13016601 8.97703996 -0.77916092 5.02125926 0 0 Z " fill="#332E21" transform="translate(698,153)"/>
<path d="M0 0 C0.66 0 1.32 0 2 0 C1.71758359 1.46015291 1.42373386 2.91809793 1.125 4.375 C0.96257813 5.18710937 0.80015625 5.99921875 0.6328125 6.8359375 C0 9 0 9 -2 11 C-2.05399736 9.54207116 -2.09279177 8.08357288 -2.125 6.625 C-2.15980469 5.40683594 -2.15980469 5.40683594 -2.1953125 4.1640625 C-2 2 -2 2 0 0 Z " fill="#25231A" transform="translate(688,775)"/>
<path d="M0 0 C0.99 0 1.98 0 3 0 C2.56179109 4.55737263 2.14958831 7.57653445 -1 11 C-1.20551329 7.30076076 -0.68248981 5.25281363 1 2 C0.67 1.34 0.34 0.68 0 0 Z " fill="#12110A" transform="translate(384,715)"/>
<path d="M0 0 C2.46800047 1.15173355 4.04783565 2.04783565 6 4 C5.67 4.99 5.34 5.98 5 7 C4.01 6.34 3.02 5.68 2 5 C1.34 5 0.68 5 0 5 C0 3.35 0 1.7 0 0 Z " fill="#2E2618" transform="translate(553,667)"/>
<path d="M0 0 C0.66 0 1.32 0 2 0 C1.01 3.3 0.02 6.6 -1 10 C-1.33 10 -1.66 10 -2 10 C-1.85950482 8.52031676 -1.71245174 7.04125484 -1.5625 5.5625 C-1.48128906 4.73878906 -1.40007812 3.91507813 -1.31640625 3.06640625 C-1 1 -1 1 0 0 Z " fill="#25241B" transform="translate(386,792)"/>
<path d="M0 0 C0.99 0.33 1.98 0.66 3 1 C1 4 -1 7 -3 10 C-2.25 2.25 -2.25 2.25 0 0 Z " fill="#0E0E09" transform="translate(292,750)"/>
<path d="M0 0 C0.99 0.33 1.98 0.66 3 1 C1.02 3.31 -0.96 5.62 -3 8 C-3.33 7.01 -3.66 6.02 -4 5 C-2.0625 2.3125 -2.0625 2.3125 0 0 Z " fill="#29261D" transform="translate(708,679)"/>
<path d="M0 0 C0 0.66 0 1.32 0 2 C-2.64 2.66 -5.28 3.32 -8 4 C-7.67 3.01 -7.34 2.02 -7 1 C-4 0 -4 0 0 0 Z " fill="#28251C" transform="translate(724,671)"/>
<path d="M0 0 C0.33 0 0.66 0 1 0 C1.33 1.98 1.66 3.96 2 6 C0.02 6.99 0.02 6.99 -2 8 C-2.6875 6.25 -2.6875 6.25 -3 4 C-1.625 1.75 -1.625 1.75 0 0 Z " fill="#272417" transform="translate(566,178)"/>
<path d="M0 0 C0.89694794 3.58779175 1.08304117 6.34618837 1 10 C-0.32 10 -1.64 10 -3 10 C-2.01 6.7 -1.02 3.4 0 0 Z " fill="#35301F" transform="translate(573,162)"/>
<path d="M0 0 C1.98 0 3.96 0 6 0 C4.68 1.32 3.36 2.64 2 4 C1.01 3.67 0.02 3.34 -1 3 C-0.67 2.01 -0.34 1.02 0 0 Z " fill="#242419" transform="translate(373,810)"/>
<path d="M0 0 C1.61949011 2.57213134 2.04408751 3.67669159 1.625 6.75 C1.41875 7.4925 1.2125 8.235 1 9 C0.34 8.67 -0.32 8.34 -1 8 C-0.67 5.36 -0.34 2.72 0 0 Z " fill="#262319" transform="translate(592,795)"/>
<path d="M0 0 C1.32 0.33 2.64 0.66 4 1 C4 1.66 4 2.32 4 3 C4.99 3.33 5.98 3.66 7 4 C5.1875 4.625 5.1875 4.625 3 5 C2.01 4.34 1.02 3.68 0 3 C0 2.01 0 1.02 0 0 Z " fill="#272519" transform="translate(358,759)"/>
<path d="M0 0 C3.63 0 7.26 0 11 0 C11 0.33 11 0.66 11 1 C7.37 1 3.74 1 0 1 C0 0.67 0 0.34 0 0 Z " fill="#3B3525" transform="translate(664,719)"/>
<path d="M0 0 C2.64 0 5.28 0 8 0 C8 0.33 8 0.66 8 1 C5.36 1 2.72 1 0 1 C0 0.67 0 0.34 0 0 Z " fill="#393223" transform="translate(351,719)"/>
<path d="M0 0 C2.31 0 4.62 0 7 0 C7 0.33 7 0.66 7 1 C4.69 1 2.38 1 0 1 C0 0.67 0 0.34 0 0 Z " fill="#393222" transform="translate(360,719)"/>
<path d="M0 0 C0.99 0.33 1.98 0.66 3 1 C2.67 1.66 2.34 2.32 2 3 C1.34 2.01 0.68 1.02 0 0 Z " fill="#353025" transform="translate(312,795)"/>
<path d="M0 0 C1.65 0 3.3 0 5 0 C5 0.33 5 0.66 5 1 C3.35 1 1.7 1 0 1 C0 0.67 0 0.34 0 0 Z " fill="#3C3526" transform="translate(677,719)"/>
<path d="M0 0 C1.65 0 3.3 0 5 0 C5 0.33 5 0.66 5 1 C3.35 1 1.7 1 0 1 C0 0.67 0 0.34 0 0 Z " fill="#393222" transform="translate(370,719)"/>
<path d="M0 0 C0.99 0.33 1.98 0.66 3 1 C2.67 1.66 2.34 2.32 2 3 C1.34 2.01 0.68 1.02 0 0 Z " fill="#3E3524" transform="translate(576,715)"/>
<path d="M0 0 C0.99 0.33 1.98 0.66 3 1 C2.34 1.66 1.68 2.32 1 3 C0.67 2.01 0.34 1.02 0 0 Z " fill="#3E3625" transform="translate(304,675)"/>
<path d="M0 0 C0.66 0.33 1.32 0.66 2 1 C0.68 1.33 -0.64 1.66 -2 2 C-1.34 1.34 -0.68 0.68 0 0 Z " fill="#4F3B25" transform="translate(529,202)"/>
<path d="M0 0 C4 1 4 1 4 1 Z " fill="#383526" transform="translate(632,822)"/>
<path d="M0 0 C4 1 4 1 4 1 Z " fill="#353326" transform="translate(606,819)"/>
<path d="M0 0 C0.66 0.66 1.32 1.32 2 2 C1.01 2.495 1.01 2.495 0 3 C0 2.01 0 1.02 0 0 Z " fill="#393121" transform="translate(601,724)"/>
<path d="M0 0 C4 1 4 1 4 1 Z " fill="#3A3324" transform="translate(658,719)"/>
<path d="M0 0 C0.99 0.33 1.98 0.66 3 1 C2.01 1 1.02 1 0 1 C0 0.67 0 0.34 0 0 Z " fill="#513B25" transform="translate(536,661)"/>
<path d="M0 0 C0.33 0.66 0.66 1.32 1 2 C0.34 1.67 -0.32 1.34 -1 1 C-0.67 0.67 -0.34 0.34 0 0 Z " fill="#363222" transform="translate(598,784)"/>
<path d="" fill="#332F21" transform="translate(0,0)"/>
<path d="" fill="#353123" transform="translate(0,0)"/>
<path d="M0 0 C0.66 0 1.32 0 2 0 C1.67 0.66 1.34 1.32 1 2 C0.67 1.34 0.34 0.68 0 0 Z " fill="#363221" transform="translate(609,737)"/>
<path d="M0 0 C3 1 3 1 3 1 Z " fill="#3A3222" transform="translate(647,719)"/>
<path d="M0 0 C0.33 0.66 0.66 1.32 1 2 C0.34 1.67 -0.32 1.34 -1 1 C-0.67 0.67 -0.34 0.34 0 0 Z " fill="#3A3422" transform="translate(640,719)"/>
<path d="M0 0 C3 1 3 1 3 1 Z " fill="#393222" transform="translate(428,719)"/>
<path d="M0 0 C0.66 0.66 1.32 1.32 2 2 C1.34 2 0.68 2 0 2 C0 1.34 0 0.68 0 0 Z " fill="#3E3424" transform="translate(580,717)"/>
<path d="M0 0 C3 1 3 1 3 1 Z " fill="#383225" transform="translate(332,718)"/>
<path d="M0 0 C0.33 0.66 0.66 1.32 1 2 C0.34 1.67 -0.32 1.34 -1 1 C-0.67 0.67 -0.34 0.34 0 0 Z " fill="#403727" transform="translate(307,678)"/>
<path d="M0 0 C0.66 0.66 1.32 1.32 2 2 C1.34 2 0.68 2 0 2 C0 1.34 0 0.68 0 0 Z " fill="#523D26" transform="translate(520,202)"/>
<path d="M0 0 C0.33 0.66 0.66 1.32 1 2 C0.34 1.67 -0.32 1.34 -1 1 C-0.67 0.67 -0.34 0.34 0 0 Z " fill="#4E3C26" transform="translate(534,200)"/>
<path d="M0 0 C0.33 0.66 0.66 1.32 1 2 C0.34 1.67 -0.32 1.34 -1 1 C-0.67 0.67 -0.34 0.34 0 0 Z " fill="#3D3527" transform="translate(722,185)"/>
<path d="" fill="#433523" transform="translate(0,0)"/>
<path d="" fill="#3C3626" transform="translate(0,0)"/>
<path d="M0 0 C2 1 2 1 2 1 Z " fill="#3A3526" transform="translate(627,822)"/>
<path d="M0 0 C2 1 2 1 2 1 Z " fill="#383327" transform="translate(642,821)"/>
<path d="M0 0 C2 1 2 1 2 1 Z " fill="#353325" transform="translate(345,811)"/>
<path d="" fill="#383227" transform="translate(0,0)"/>
<path d="" fill="#393325" transform="translate(0,0)"/>
<path d="M0 0 C2 1 2 1 2 1 Z " fill="#332E23" transform="translate(398,769)"/>
<path d="M0 0 C2 1 2 1 2 1 Z " fill="#343223" transform="translate(349,752)"/>
<path d="M0 0 C2 1 2 1 2 1 Z " fill="#393223" transform="translate(644,719)"/>
<path d="M0 0 C2 1 2 1 2 1 Z " fill="#3C3423" transform="translate(436,719)"/>
<path d="M0 0 C2 1 2 1 2 1 Z " fill="#3B3422" transform="translate(433,719)"/>
<path d="M0 0 C2 1 2 1 2 1 Z " fill="#3D3523" transform="translate(420,719)"/>
<path d="M0 0 C2 1 2 1 2 1 Z " fill="#3C3523" transform="translate(376,719)"/>
<path d="M0 0 C2 1 2 1 2 1 Z " fill="#3A3424" transform="translate(330,719)"/>
<path d="" fill="#3D3A2B" transform="translate(0,0)"/>
<path d="" fill="#3B3423" transform="translate(0,0)"/>
<path d="" fill="#3A3727" transform="translate(0,0)"/>
<path d="" fill="#3D3625" transform="translate(0,0)"/>
<path d="M0 0 C2 1 2 1 2 1 Z " fill="#503C25" transform="translate(544,665)"/>
<path d="M0 0 C2 1 2 1 2 1 Z " fill="#503A27" transform="translate(541,663)"/>
<path d="M0 0 C2 1 2 1 2 1 Z " fill="#553D27" transform="translate(529,659)"/>
<path d="M0 0 C2 1 2 1 2 1 Z " fill="#503D25" transform="translate(493,202)"/>
<path d="M0 0 C2 1 2 1 2 1 Z " fill="#4D3C26" transform="translate(536,200)"/>
<path d="" fill="#3F3927" transform="translate(0,0)"/>
<path d="M0 0 C2 1 2 1 2 1 Z " fill="#3E3526" transform="translate(716,184)"/>
<path d="" fill="#423825" transform="translate(0,0)"/>
<path d="" fill="#423623" transform="translate(0,0)"/>
<path d="" fill="#433725" transform="translate(0,0)"/>
<path d="" fill="#41413B" transform="translate(0,0)"/>
<path d="" fill="#373627" transform="translate(0,0)"/>
<path d="" fill="#373526" transform="translate(0,0)"/>
<path d="" fill="#3A3428" transform="translate(0,0)"/>
<path d="" fill="#383628" transform="translate(0,0)"/>
<path d="" fill="#3A3529" transform="translate(0,0)"/>
<path d="" fill="#393527" transform="translate(0,0)"/>
<path d="" fill="#393828" transform="translate(0,0)"/>
<path d="" fill="#3A352A" transform="translate(0,0)"/>
<path d="" fill="#383427" transform="translate(0,0)"/>
<path d="" fill="#373424" transform="translate(0,0)"/>
<path d="" fill="#353125" transform="translate(0,0)"/>
<path d="" fill="#393526" transform="translate(0,0)"/>
<path d="" fill="#3A3527" transform="translate(0,0)"/>
<path d="" fill="#393427" transform="translate(0,0)"/>
<path d="" fill="#3A372A" transform="translate(0,0)"/>
<path d="" fill="#363326" transform="translate(0,0)"/>
<path d="" fill="#373125" transform="translate(0,0)"/>
<path d="" fill="#393425" transform="translate(0,0)"/>
<path d="" fill="#3B362B" transform="translate(0,0)"/>
<path d="" fill="#3B3729" transform="translate(0,0)"/>
<path d="" fill="#353324" transform="translate(0,0)"/>
<path d="" fill="#383427" transform="translate(0,0)"/>
<path d="" fill="#3B3627" transform="translate(0,0)"/>
<path d="" fill="#373325" transform="translate(0,0)"/>
<path d="" fill="#343024" transform="translate(0,0)"/>
<path d="" fill="#3B3728" transform="translate(0,0)"/>
<path d="" fill="#383327" transform="translate(0,0)"/>
<path d="" fill="#343226" transform="translate(0,0)"/>
<path d="" fill="#393428" transform="translate(0,0)"/>
<path d="" fill="#393323" transform="translate(0,0)"/>
<path d="" fill="#3A3329" transform="translate(0,0)"/>
<path d="" fill="#3A3429" transform="translate(0,0)"/>
<path d="" fill="#393627" transform="translate(0,0)"/>
<path d="" fill="#3A3727" transform="translate(0,0)"/>
<path d="" fill="#353223" transform="translate(0,0)"/>
<path d="" fill="#363224" transform="translate(0,0)"/>
<path d="" fill="#342F25" transform="translate(0,0)"/>
<path d="" fill="#383529" transform="translate(0,0)"/>
<path d="" fill="#343225" transform="translate(0,0)"/>
<path d="" fill="#353124" transform="translate(0,0)"/>
<path d="" fill="#353324" transform="translate(0,0)"/>
<path d="" fill="#343223" transform="translate(0,0)"/>
<path d="" fill="#373428" transform="translate(0,0)"/>
<path d="" fill="#352F22" transform="translate(0,0)"/>
<path d="" fill="#3A342B" transform="translate(0,0)"/>
<path d="" fill="#39362A" transform="translate(0,0)"/>
<path d="" fill="#373323" transform="translate(0,0)"/>
<path d="" fill="#3A382C" transform="translate(0,0)"/>
<path d="" fill="#373424" transform="translate(0,0)"/>
<path d="" fill="#313221" transform="translate(0,0)"/>
<path d="" fill="#3C3B2B" transform="translate(0,0)"/>
<path d="" fill="#353028" transform="translate(0,0)"/>
<path d="" fill="#393124" transform="translate(0,0)"/>
<path d="" fill="#363122" transform="translate(0,0)"/>
<path d="" fill="#3A382B" transform="translate(0,0)"/>
<path d="" fill="#383327" transform="translate(0,0)"/>
<path d="" fill="#383123" transform="translate(0,0)"/>
<path d="" fill="#323023" transform="translate(0,0)"/>
<path d="" fill="#363220" transform="translate(0,0)"/>
<path d="" fill="#373324" transform="translate(0,0)"/>
<path d="" fill="#383224" transform="translate(0,0)"/>
<path d="" fill="#393523" transform="translate(0,0)"/>
<path d="" fill="#373126" transform="translate(0,0)"/>
<path d="" fill="#382F1F" transform="translate(0,0)"/>
<path d="" fill="#343222" transform="translate(0,0)"/>
<path d="" fill="#363121" transform="translate(0,0)"/>
<path d="" fill="#383624" transform="translate(0,0)"/>
<path d="" fill="#383324" transform="translate(0,0)"/>
<path d="" fill="#342E22" transform="translate(0,0)"/>
<path d="" fill="#363226" transform="translate(0,0)"/>
<path d="" fill="#39352A" transform="translate(0,0)"/>
<path d="" fill="#393A29" transform="translate(0,0)"/>
<path d="" fill="#363321" transform="translate(0,0)"/>
<path d="" fill="#363124" transform="translate(0,0)"/>
<path d="" fill="#3A3828" transform="translate(0,0)"/>
<path d="" fill="#373629" transform="translate(0,0)"/>
<path d="" fill="#363222" transform="translate(0,0)"/>
<path d="" fill="#353022" transform="translate(0,0)"/>
<path d="" fill="#343122" transform="translate(0,0)"/>
<path d="" fill="#352F24" transform="translate(0,0)"/>
<path d="" fill="#353123" transform="translate(0,0)"/>
<path d="" fill="#363423" transform="translate(0,0)"/>
<path d="" fill="#383123" transform="translate(0,0)"/>
<path d="" fill="#393323" transform="translate(0,0)"/>
<path d="" fill="#322E20" transform="translate(0,0)"/>
<path d="" fill="#373122" transform="translate(0,0)"/>
<path d="" fill="#353020" transform="translate(0,0)"/>
<path d="" fill="#352C1F" transform="translate(0,0)"/>
<path d="" fill="#393224" transform="translate(0,0)"/>
<path d="" fill="#393221" transform="translate(0,0)"/>
<path d="" fill="#3C3521" transform="translate(0,0)"/>
<path d="" fill="#3D3325" transform="translate(0,0)"/>
<path d="" fill="#3D3626" transform="translate(0,0)"/>
<path d="" fill="#383325" transform="translate(0,0)"/>
<path d="" fill="#3B3524" transform="translate(0,0)"/>
<path d="" fill="#3A3522" transform="translate(0,0)"/>
<path d="" fill="#3A3222" transform="translate(0,0)"/>
<path d="" fill="#3C3222" transform="translate(0,0)"/>
<path d="" fill="#3D3525" transform="translate(0,0)"/>
<path d="" fill="#393323" transform="translate(0,0)"/>
<path d="" fill="#3B3323" transform="translate(0,0)"/>
<path d="" fill="#3B3623" transform="translate(0,0)"/>
<path d="" fill="#3B3324" transform="translate(0,0)"/>
<path d="" fill="#3D3626" transform="translate(0,0)"/>
<path d="" fill="#3C3525" transform="translate(0,0)"/>
<path d="" fill="#3C3627" transform="translate(0,0)"/>
<path d="" fill="#3B382A" transform="translate(0,0)"/>
<path d="" fill="#3A3626" transform="translate(0,0)"/>
<path d="" fill="#352E1C" transform="translate(0,0)"/>
<path d="" fill="#363126" transform="translate(0,0)"/>
<path d="" fill="#393222" transform="translate(0,0)"/>
<path d="" fill="#3E382A" transform="translate(0,0)"/>
<path d="" fill="#3B3628" transform="translate(0,0)"/>
<path d="" fill="#3E3628" transform="translate(0,0)"/>
<path d="" fill="#403927" transform="translate(0,0)"/>
<path d="" fill="#3D3727" transform="translate(0,0)"/>
<path d="" fill="#3E3427" transform="translate(0,0)"/>
<path d="" fill="#433922" transform="translate(0,0)"/>
<path d="" fill="#493923" transform="translate(0,0)"/>
<path d="" fill="#4C3B24" transform="translate(0,0)"/>
<path d="" fill="#403725" transform="translate(0,0)"/>
<path d="" fill="#403725" transform="translate(0,0)"/>
<path d="" fill="#3D3424" transform="translate(0,0)"/>
<path d="" fill="#4B3828" transform="translate(0,0)"/>
<path d="" fill="#463924" transform="translate(0,0)"/>
<path d="" fill="#403626" transform="translate(0,0)"/>
<path d="" fill="#403727" transform="translate(0,0)"/>
<path d="" fill="#3C3522" transform="translate(0,0)"/>
<path d="" fill="#453A28" transform="translate(0,0)"/>
<path d="" fill="#403826" transform="translate(0,0)"/>
<path d="" fill="#3C3827" transform="translate(0,0)"/>
<path d="" fill="#4C3C28" transform="translate(0,0)"/>
<path d="" fill="#3E3C2E" transform="translate(0,0)"/>
<path d="" fill="#4E3B29" transform="translate(0,0)"/>
<path d="" fill="#423B29" transform="translate(0,0)"/>
<path d="" fill="#413825" transform="translate(0,0)"/>
<path d="" fill="#413828" transform="translate(0,0)"/>
<path d="" fill="#4C3A26" transform="translate(0,0)"/>
<path d="" fill="#403726" transform="translate(0,0)"/>
<path d="" fill="#413726" transform="translate(0,0)"/>
<path d="" fill="#433A28" transform="translate(0,0)"/>
<path d="" fill="#433B2A" transform="translate(0,0)"/>
<path d="" fill="#4F3C26" transform="translate(0,0)"/>
<path d="" fill="#4E3A25" transform="translate(0,0)"/>
<path d="" fill="#513D26" transform="translate(0,0)"/>
<path d="" fill="#3D3828" transform="translate(0,0)"/>
<path d="" fill="#533E28" transform="translate(0,0)"/>
<path d="" fill="#513D25" transform="translate(0,0)"/>
<path d="" fill="#523B24" transform="translate(0,0)"/>
<path d="" fill="#533E26" transform="translate(0,0)"/>
<path d="" fill="#533E28" transform="translate(0,0)"/>
<path d="" fill="#4D3C28" transform="translate(0,0)"/>
<path d="" fill="#513A24" transform="translate(0,0)"/>
<path d="" fill="#554027" transform="translate(0,0)"/>
<path d="" fill="#4F3D24" transform="translate(0,0)"/>
<path d="" fill="#533B27" transform="translate(0,0)"/>
<path d="" fill="#533E27" transform="translate(0,0)"/>
<path d="" fill="#533E27" transform="translate(0,0)"/>
<path d="" fill="#553B26" transform="translate(0,0)"/>
<path d="" fill="#403627" transform="translate(0,0)"/>
<path d="" fill="#423726" transform="translate(0,0)"/>
<path d="" fill="#413726" transform="translate(0,0)"/>
<path d="" fill="#575654" transform="translate(0,0)"/>
<path d="" fill="#413828" transform="translate(0,0)"/>
<path d="" fill="#403627" transform="translate(0,0)"/>
<path d="" fill="#3E3625" transform="translate(0,0)"/>
<path d="" fill="#3E3425" transform="translate(0,0)"/>
<path d="" fill="#3D3526" transform="translate(0,0)"/>
<path d="" fill="#4F3B24" transform="translate(0,0)"/>
<path d="" fill="#503D27" transform="translate(0,0)"/>
<path d="" fill="#513E25" transform="translate(0,0)"/>
<path d="" fill="#503B24" transform="translate(0,0)"/>
<path d="" fill="#4B3A26" transform="translate(0,0)"/>
<path d="" fill="#4A3B25" transform="translate(0,0)"/>
<path d="" fill="#4B3725" transform="translate(0,0)"/>
<path d="" fill="#493A24" transform="translate(0,0)"/>
<path d="" fill="#4B3C25" transform="translate(0,0)"/>
<path d="" fill="#483824" transform="translate(0,0)"/>
<path d="" fill="#383224" transform="translate(0,0)"/>
<path d="" fill="#4B3B24" transform="translate(0,0)"/>
<path d="" fill="#373223" transform="translate(0,0)"/>
<path d="" fill="#3D382A" transform="translate(0,0)"/>
<path d="" fill="#3C3627" transform="translate(0,0)"/>
<path d="" fill="#3D3929" transform="translate(0,0)"/>
<path d="" fill="#3D3827" transform="translate(0,0)"/>
<path d="" fill="#473723" transform="translate(0,0)"/>
<path d="" fill="#413828" transform="translate(0,0)"/>
<path d="" fill="#473A24" transform="translate(0,0)"/>
<path d="" fill="#3E3826" transform="translate(0,0)"/>
<path d="" fill="#3D3728" transform="translate(0,0)"/>
<path d="" fill="#3D3628" transform="translate(0,0)"/>
<path d="" fill="#4B3A26" transform="translate(0,0)"/>
<path d="" fill="#423827" transform="translate(0,0)"/>
<path d="" fill="#463723" transform="translate(0,0)"/>
<path d="" fill="#4C3929" transform="translate(0,0)"/>
<path d="" fill="#423725" transform="translate(0,0)"/>
<path d="" fill="#453A23" transform="translate(0,0)"/>
<path d="" fill="#4B3A23" transform="translate(0,0)"/>
<path d="" fill="#483923" transform="translate(0,0)"/>
<path d="" fill="#403423" transform="translate(0,0)"/>
<path d="" fill="#413723" transform="translate(0,0)"/>
<path d="" fill="#483825" transform="translate(0,0)"/>
<path d="" fill="#403620" transform="translate(0,0)"/>
<path d="" fill="#443522" transform="translate(0,0)"/>
<path d="" fill="#3C3223" transform="translate(0,0)"/>
<path d="" fill="#3F3525" transform="translate(0,0)"/>
<path d="" fill="#3F3425" transform="translate(0,0)"/>
<path d="" fill="#453722" transform="translate(0,0)"/>
<path d="" fill="#433823" transform="translate(0,0)"/>
<path d="" fill="#3F3322" transform="translate(0,0)"/>
<path d="" fill="#3C3321" transform="translate(0,0)"/>
<path d="" fill="#3C3426" transform="translate(0,0)"/>
<path d="" fill="#3C3727" transform="translate(0,0)"/>
<path d="" fill="#3B3627" transform="translate(0,0)"/>
<path d="" fill="#3E3628" transform="translate(0,0)"/>
<path d="" fill="#3C3526" transform="translate(0,0)"/>
<path d="" fill="#3D3321" transform="translate(0,0)"/>
<path d="" fill="#463B28" transform="translate(0,0)"/>
</svg>
